PathFileType	3	(X/Y/Z)	D:\ViconData\Biomechanics course\HT2024\Leo31oct\Walk_Norm15.trc
DataRate	CameraRate	NumFrames	NumMarkers	Units	OrigDataRate	OrigDataStartFrame	OrigNumFrames
100.0	100.0	7	53	mm	100.0	238	210	
Frame#	Time	LFHD			RFHD			LBHD			RBHD			C7			T10			CLAV			STRN			RBAK			LSHO			LUPA			LELB			LFRM			LWRA			LWRB			LFIN			RSHO			RUPA			RELB			RFRM			RWRA			RWRB			RFIN			LASI			RASI			LPSI			RPSI			LTHI			LTHAP			LTHAD			LKNE			LKNM			LTIB			LTIAP			LTIAD			LANK			LMED			LHEE			LTOE			RTHI			RTHAP			RTHAD			RKNE			RKNM			RTIB			RTIAP			RTIAD			RANK			RMED			RHEE			RTOE			LPel			RPel			
		X1	Y1	Z1	X2	Y2	Z2	X3	Y3	Z3	X4	Y4	Z4	X5	Y5	Z5	X6	Y6	Z6	X7	Y7	Z7	X8	Y8	Z8	X9	Y9	Z9	X10	Y10	Z10	X11	Y11	Z11	X12	Y12	Z12	X13	Y13	Z13	X14	Y14	Z14	X15	Y15	Z15	X16	Y16	Z16	X17	Y17	Z17	X18	Y18	Z18	X19	Y19	Z19	X20	Y20	Z20	X21	Y21	Z21	X22	Y22	Z22	X23	Y23	Z23	X24	Y24	Z24	X25	Y25	Z25	X26	Y26	Z26	X27	Y27	Z27	X28	Y28	Z28	X29	Y29	Z29	X30	Y30	Z30	X31	Y31	Z31	X32	Y32	Z32	X33	Y33	Z33	X34	Y34	Z34	X35	Y35	Z35	X36	Y36	Z36	X37	Y37	Z37	X38	Y38	Z38	X39	Y39	Z39	X40	Y40	Z40	X41	Y41	Z41	X42	Y42	Z42	X43	Y43	Z43	X44	Y44	Z44	X45	Y45	Z45	X46	Y46	Z46	X47	Y47	Z47	X48	Y48	Z48	X49	Y49	Z49	X50	Y50	Z50	X51	Y51	Z51	X52	Y52	Z52	X53	Y53	Z53	
238	2.37	162.40344	1654.049	-743.12683	278.92065	1655.9263	-739.65625				284.56577	1665.4215	-885.30713	216.79147	1520.4861	-680.20557	217.69431	1287.4402	-603.21466	224.5065	1437.5258	-802.80695	226.34981	1244.2604	-837.53571	299.70551	1410.548	-616.4967	62.252884	1472.5505	-757.57593	-40.362823	1203.9965	-813.25366	-51.660122	1129.5094	-843.35663	-20.47467	1054.0645	-941.28418	77.484634	1022.072	-1064.4691	44.900608	964.47467	-1044.0287	75.305481	977.97937	-1146.0298	379.63458	1466.4437	-740.2074	469.66241	1208.7102	-667.06976	482.3187	1128.891	-641.50928	491.15186	989.81543	-670.75671	462.81958	843.42944	-639.44659	439.97726	830.95416	-705.68719	471.13507	747.67657	-700.64172	96.161041	1000.9891	-785.28503	336.77402	1018.1713	-807.08405	190.87219	1028.0691	-603.46539	275.06195	1033.0022	-609.53094	69.987717	611.5874	-663.04065	134.79445	659.07367	-782.66748	136.84531	539.93396	-751.05664	84.239883	482.52933	-631.10022				95.271461	297.05502	-437.81192	119.20908	372.09253	-607.24506	133.15607	229.24194	-433.72815	121.69847	176.32346	-327.08746				163.5591	204.68535	-267.92764	158.63628	84.361031	-366.84424	349.93872	608.66528	-872.77057	282.49081	723.38165	-918.96246	271.70554	645.28156	-940.32849	334.50961	508.46445	-903.92603				316.26648	226.13516	-903.05231	279.91608	438.5329	-956.95502	266.69501	230.93573	-946.62781	285.73895	89.0578	-901.62115				243.97736	52.843582	-843.133	257.50958	46.762775	-1004.4058	64.644264	1023.9552	-696.16809	375.69443	1042.5387	-677.04211
239	2.38	163.79173	1655.1538	-756.99951	280.34634	1656.6222	-753.83502				285.63318	1666.1243	-899.51129	217.99321	1521.3989	-694.25372	218.61609	1288.3417	-617.59326	225.04607	1438.4231	-816.86121	226.27681	1245.1718	-851.66083	300.9968	1411.2786	-630.90503	63.034809	1473.8815	-770.96747	-40.295605	1204.7958	-823.7583	-51.829723	1130.0332	-852.99115	-20.591204	1053.6509	-950.20166	77.641647	1020.7131	-1072.9445	44.874012	963.27869	-1052.238	75.759094	976.08148	-1154.1545	380.42648	1466.9634	-754.95404	470.44745	1208.8722	-682.99133	483.22473	1129.0033	-657.66907	492.03033	990.03259	-687.48315	463.85178	843.50647	-656.6297	440.84222	831.27606	-722.91791	472.05469	747.97675	-718.22058	96.737686	1001.1252	-798.81494	337.16568	1019.4935	-821.09515	191.33266	1028.7128	-617.11908	275.50656	1034.3002	-623.3454	70.006821	609.46558	-684.94836	133.85228	659.47449	-803.66083	135.63962	539.47693	-775.21216	83.956818	481.62216	-656.18158				94.337669	303.0163	-458.53949	118.24413	372.05444	-630.33917	131.46909	235.10786	-452.40472	119.98988	186.13361	-343.95471				162.27231	217.66661	-286.62585	156.68367	91.117889	-378.07751	350.29083	609.19586	-883.64148	283.10068	723.39819	-930.61298	272.0065	645.14484	-951.10071	334.49411	508.51285	-913.60748				316.54724	226.2155	-907.15576	279.62326	437.53873	-965.13519	266.42618	230.03545	-950.36389	285.75742	89.163544	-902.35358				244.25536	53.159969	-843.26935	257.42584	46.560246	-1004.6163	64.967682	1023.793	-709.66449	376.00757	1044.3837	-691.04285
240	2.39	165.11282	1656.4692	-770.7829	281.7016	1657.5189	-767.92621				286.6312	1666.9902	-913.62598	219.15195	1522.5082	-708.19385	219.5311	1289.448	-631.85535	225.49536	1439.522	-830.79474	226.10663	1246.2831	-865.64813	302.27509	1412.2212	-645.22595	63.730583	1475.4219	-784.18756	-40.255733	1205.7543	-833.94843	-52.015682	1130.692	-862.23706	-20.861824	1053.1266	-958.55103	77.499329	1018.8102	-1080.8335	44.501961	961.64832	-1059.6633	75.814743	973.35602	-1161.5537	381.1442	1467.7086	-769.64081	471.21515	1209.2516	-698.97412	484.14053	1129.3309	-673.92053	492.94318	990.49133	-704.39514	464.93674	843.80096	-674.10895	441.77191	831.86328	-740.45959	473.07364	748.54901	-736.18048	97.309906	1001.5652	-812.21716	337.56641	1020.9474	-834.96356	191.77023	1029.5747	-630.63525	275.92303	1035.7778	-637.02655	70.021919	607.84222	-707.01471	132.66461	660.4411	-824.80048	134.29692	539.68005	-799.65985	83.583496	481.19785	-681.81342				93.466713	309.04709	-480.57739	117.31413	372.47473	-654.33258	129.96136	241.14645	-472.56259	118.52082	195.9155	-362.52448				161.30466	230.1134	-306.88144	154.50635	98.501717	-391.62741	350.92868	609.62366	-893.63635	284.03381	723.16675	-941.7171	272.90466	644.71021	-961.26428	334.77957	508.4346	-922.34686				316.98611	226.22458	-910.58594	279.78162	436.51294	-972.5614	266.54395	229.2135	-953.68085	285.90039	89.297104	-902.88135				244.5522	53.428986	-843.38397	257.50922	46.602631	-1004.735	65.299217	1023.9388	-723.01398	376.30344	1046.3507	-704.88269
241	2.4	166.35617	1657.9758	-784.46393	282.97546	1658.6051	-781.91669				287.54849	1668.0112	-927.63727	220.2627	1523.7983	-722.01434	220.44218	1290.743	-645.98254	225.8557	1440.8074	-844.59589	225.85004	1247.5795	-879.48907	303.53519	1413.3617	-659.44464	64.337822	1477.1503	-797.22833	-40.241245	1206.8591	-843.8316	-52.214481	1131.4763	-871.10748	-21.285892	1052.4968	-966.34552	77.048851	1016.3777	-1088.1426	43.780025	959.60059	-1066.3145	75.459312	969.83307	-1168.2346	381.78659	1468.6693	-784.24774	471.96762	1209.8417	-714.99603	485.06729	1129.8672	-690.2439	493.88763	991.18658	-721.47723	466.06873	844.31024	-691.87396	442.75815	832.71576	-758.29956	474.18149	749.39484	-754.51447	97.87735	1002.3087	-825.49805	337.97894	1022.5087	-848.67987	192.1786	1030.6447	-644.01459	276.30649	1037.4138	-650.56995	70.068657	606.80847	-729.112	131.29475	662.00458	-845.9646	132.8743	540.60028	-824.2453	83.137863	481.32114	-707.83868				92.673195	315.04001	-503.78604	116.42627	373.37238	-679.11285	128.63766	247.22108	-494.11163	117.30087	205.41556	-382.70767				160.68408	241.67574	-328.52487	152.11612	106.24162	-407.62701	351.7858	609.93823	-902.77063	285.25479	722.6864	-952.31586	274.3623	643.95184	-970.84546	335.32382	508.23038	-930.17902				317.52414	226.14639	-913.40906	280.34061	435.45428	-979.26697	266.98065	228.44562	-956.62067	286.12195	89.426346	-903.2478				244.83733	53.657425	-843.48352	257.70688	46.777557	-1004.7881	65.635757	1024.3998	-736.22784	376.58261	1048.4089	-718.55182
242	2.41	167.51318	1659.6519	-798.03113	284.15927	1659.8676	-795.79486				288.37497	1669.178	-941.53308	221.32176	1525.2511	-735.70636	221.35255	1292.2074	-659.96027	226.13112	1442.2623	-858.2561	225.52122	1249.0443	-893.17944	304.77237	1414.6836	-673.5484	64.856682	1479.0428	-810.08722	-40.249363	1208.0944	-853.41882	-52.422096	1132.375	-879.6181	-21.861519	1051.7675	-973.60004	76.282967	1013.435	-1094.8761	42.706715	957.15753	-1072.203	74.680634	965.55298	-1174.2012	382.35486	1469.8329	-798.75635	472.7081	1210.6342	-731.03369	486.00671	1130.6027	-706.61829	494.86111	992.11145	-738.71228	467.24127	845.02979	-709.91321	443.79233	833.83173	-776.42389	475.36673	750.51434	-773.2135	98.440819	1003.3502	-838.66791	338.40628	1024.1531	-862.23737	192.54961	1031.9094	-657.26123	276.65015	1039.1862	-663.974	70.167702	606.42957	-751.1474	129.82419	664.18152	-867.04883	131.43188	542.27142	-848.83771	82.638885	482.03851	-734.10687				91.964249	320.88818	-528.00934	115.58235	374.75302	-704.56207	127.48254	253.18471	-516.94244	116.31751	214.37198	-404.39655				160.39801	252.03986	-351.38135	149.56007	114.01632	-426.11978	352.79028	610.14093	-911.09253	286.70435	721.97607	-962.45514	276.28629	642.87708	-979.87653	336.07529	507.91144	-937.16541				318.10815	225.98116	-915.71631	281.23032	434.36743	-985.29913	267.65469	227.71518	-959.22736	286.38168	89.531746	-903.49579				245.08955	53.857792	-843.57269	257.96939	46.997849	-1004.7989	65.972694	1025.1768	-749.32294	376.84427	1050.5284	-732.04303
243	2.42	168.57726	1661.473	-811.47467	285.24628	1661.2909	-809.55115				289.10257	1670.4812	-955.30347	222.32658	1526.8467	-749.26385	222.26538	1293.8199	-673.77777	226.32831	1443.8678	-871.76984	225.13705	1250.6592	-906.71906	305.98251	1416.1675	-687.5271	65.289734	1481.0741	-822.76611	-40.276394	1209.4434	-862.7243	-52.633926	1133.3754	-887.78735	-22.585505	1050.946	-980.33154	75.196213	1010.005	-1101.0364	41.283714	954.34576	-1077.3407	73.467545	960.56482	-1179.4559	382.85223	1471.1842	-813.1496	473.44089	1211.6176	-747.06293	486.96112	1131.5254	-723.02155	495.86139	993.25647	-756.0824	468.44724	845.95331	-728.21381	444.86581	835.20807	-794.81689	476.61713	751.90649	-792.26611	99.00193	1004.6773	-851.74091	338.85132	1025.8577	-875.63159	192.8734	1033.3531	-670.38263	276.94601	1041.0714	-677.23956	70.321342	606.73834	-773.06665	128.3401	666.97137	-887.97125	130.02376	544.70227	-873.33276	82.105202	483.37381	-760.47992				91.337975	326.48575	-553.08533	114.78029	376.60806	-730.56036	126.46635	258.88553	-540.93201	115.53838	222.52734	-427.47339				160.38933	260.9455	-375.28308	146.92012	121.48529	-447.0596	353.87051	610.24567	-918.68378	288.30209	721.07391	-972.18231	278.5321	641.52948	-988.39496	336.97714	507.4978	-943.39044				318.69318	225.74242	-917.61383	282.36795	433.26257	-990.71747	268.47928	227.01372	-961.54584	286.64624	89.605606	-903.66522				245.29596	54.046291	-843.6557	258.25418	47.20319	-1004.7869	66.30423	1026.2639	-762.3205	377.08585	1052.6807	-745.35162
244	2.43	169.54391	1663.4127	-824.78705	286.23209	1662.8571	-823.17828				289.72543	1671.9103	-968.9408	223.27565	1528.5626	-762.68323	223.18329	1295.5573	-687.4281	226.45604	1445.6035	-885.13495	224.71628	1252.4042	-920.11127	307.16165	1417.7926	-701.37317	65.6418	1483.2167	-835.27191	-40.317772	1210.887	-871.76593	-52.844734	1134.4629	-895.63623	-23.453304	1050.0403	-986.55927	73.785217	1006.1146	-1106.6257	39.51609	951.19568	-1081.7405	71.810081	954.92517	-1183.9988	383.2836	1472.7054	-827.41223	474.17117	1212.7788	-763.05951	487.93329	1132.6213	-739.43127	496.8862	994.61005	-773.5683	469.67892	847.07281	-746.76178	445.97021	836.83978	-813.46222	477.91965	753.56891	-811.65881	99.562683	1006.2726	-864.73273	339.31647	1027.6002	-888.85992	193.13907	1034.9568	-683.38831	277.1846	1043.0459	-690.36987	70.513451	607.73462	-794.84979	126.92358	670.35614	-908.67328	128.69162	547.87714	-897.65063	81.554153	485.32559	-786.83386				90.783401	331.72726	-578.8551	114.01614	378.91428	-756.98889	125.55358	264.17288	-565.94897	114.9164	229.64279	-451.81714				160.56247	268.19559	-400.07779	144.30281	128.32024	-470.32184	354.96033	610.27655	-925.65399	289.95319	720.03339	-981.54388	280.91891	639.98322	-996.44354	337.97156	507.01593	-948.95532				319.24393	225.45329	-919.21143	283.66525	432.15405	-995.59027	269.37064	226.34016	-963.62067	286.88986	89.650124	-903.79156				245.45032	54.240997	-843.73682	258.52783	47.358295	-1004.7686	66.62368	1027.6482	-775.24493	377.30319	1054.839	-758.4751
